<?xml version="1.0" encoding="UTF-8"?>
<svg width="128" height="40" xmlns="http://www.w3.org/2000/svg" xmlns:svg="http://www.w3.org/2000/svg">
 <g>
  <title>Layer 1</title>
  <g id="svg_1">
   <path id="svg_2" d="m124,40l-120,0c-2.2,0 -4,-1.8 -4,-4l0,-32c0,-2.2 1.8,-4 4,-4l120,0c2.2,0 4,1.8 4,4l0,32c0,2.2 -1.8,4 -4,4z"/>
   <path id="svg_3" d="m29.4,28.5c-9.7,4.6 -15.7,0.8 -19.5,-1.6c-0.2,-0.1 -0.6,0 -0.3,0.4c1.3,1.6 5.5,5.3 11,5.3c5.5,0 8.7,-3 9.2,-3.5c0.3,-0.5 0.1,-0.8 -0.4,-0.6z" fill="#FF9900"/>
   <path id="svg_4" d="m32.2,27c-0.3,-0.3 -1.6,-0.4 -2.4,-0.3c-0.8,0.1 -2.1,0.6 -2,0.9c0.1,0.1 0.2,0.1 0.7,0c0.6,-0.1 2.2,-0.3 2.5,0.2c0.3,0.4 -0.5,2.5 -0.7,2.9c-0.1,0.3 0.1,0.4 0.3,0.2c0.3,-0.2 0.8,-0.8 1.1,-1.6c0.5,-0.9 0.7,-2.1 0.5,-2.3z" fill="#FF9900"/>
   <path id="svg_5" d="m27,21.1l0,-7.7c0,-1.3 -1.3,-4.3 -5.9,-4.3c-4.6,0 -7.1,2.9 -7.1,5.5l3.9,0.3c0,0 0.9,-2.6 2.8,-2.6c2,0 1.9,1.6 1.9,2l0,1.7c-2.6,0.1 -8.9,0.8 -8.9,6.2c0,5.7 7.2,6 9.6,2.3c0.1,0.2 0.2,0.3 0.3,0.4c0.9,0.9 2,2 2,2l3,-2.9c0.1,-0.1 -1.6,-1.4 -1.6,-2.9zm-4.4,-0.6c0,4.2 -4.4,3.6 -4.4,0.9c0,-2.5 2.6,-3 4.4,-3l0,2.1z" fill="#FFFFFF"/>
   <g id="svg_6">
    <path id="svg_7" d="m42.9,8.1l1.2,0l2.5,6.4l-1.2,0l-0.6,-1.7l-2.6,0l-0.6,1.7l-1.2,0l2.5,-6.4zm-0.4,3.8l2,0l-1,-2.8l0,0l-1,2.8z" fill="#FFFFFF"/>
    <path id="svg_8" d="m46.4,9.8l1.1,0l1.2,3.6l0,0l1.1,-3.6l1.1,0l-1.7,4.7l-1.2,0l-1.6,-4.7z" fill="#FFFFFF"/>
    <path id="svg_9" d="m55.4,13.5c0,0.1 0,0.2 0,0.3c0,0.1 0.1,0.1 0.2,0.1c0,0 0.1,0 0.1,0s0.1,0 0.1,0l0,0.7c0,0 -0.1,0 -0.1,0c-0.1,0 -0.1,0 -0.2,0c-0.1,0 -0.1,0 -0.2,0c-0.1,0 -0.1,0 -0.2,0c-0.2,0 -0.4,0 -0.5,-0.1c-0.1,-0.1 -0.2,-0.2 -0.3,-0.4c-0.2,0.2 -0.5,0.3 -0.8,0.4c-0.3,0.1 -0.6,0.1 -0.9,0.1c-0.2,0 -0.4,0 -0.6,-0.1c-0.2,-0.1 -0.4,-0.1 -0.5,-0.3c-0.1,-0.1 -0.3,-0.3 -0.4,-0.4c-0.1,-0.2 -0.1,-0.4 -0.1,-0.6c0,-0.3 0.1,-0.5 0.2,-0.7c0.1,-0.2 0.2,-0.3 0.4,-0.4s0.4,-0.2 0.6,-0.2s0.4,-0.1 0.6,-0.1c0.2,0 0.4,-0.1 0.5,-0.1c0.2,0 0.3,0 0.4,-0.1s0.2,-0.1 0.3,-0.2s0.1,-0.2 0.1,-0.3c0,-0.1 0,-0.2 -0.1,-0.3c-0.1,-0.1 -0.1,-0.1 -0.2,-0.2s-0.2,-0.1 -0.3,-0.1c-0.1,0 -0.2,0 -0.3,0c-0.3,0 -0.5,0.1 -0.7,0.2c-0.2,0.1 -0.3,0.3 -0.3,0.6l-1,0c0,-0.3 0.1,-0.5 0.2,-0.7c0.1,-0.2 0.3,-0.4 0.5,-0.5c0.2,-0.1 0.4,-0.2 0.7,-0.3c0.2,0 0.5,-0.1 0.8,-0.1c0.2,0 0.5,0 0.7,0.1c0.2,0 0.4,0.1 0.6,0.2s0.3,0.2 0.4,0.4c0.1,0.2 0.2,0.4 0.2,0.6l0,2.5l0.1,0zm-1,-1.3c-0.2,0.1 -0.3,0.2 -0.6,0.2c-0.2,0 -0.5,0.1 -0.7,0.1c-0.1,0 -0.2,0 -0.3,0.1c-0.1,0 -0.2,0.1 -0.3,0.1c-0.1,0.1 -0.1,0.1 -0.2,0.2c0,0.1 -0.1,0.2 -0.1,0.3c0,0.1 0,0.2 0.1,0.3c0.1,0.1 0.1,0.1 0.2,0.2s0.2,0.1 0.3,0.1c0.1,0 0.2,0 0.3,0c0.1,0 0.2,0 0.4,0c0.1,0 0.3,-0.1 0.4,-0.2c0.1,-0.1 0.2,-0.2 0.3,-0.3c0.1,-0.1 0.1,-0.2 0.1,-0.4l0,-0.7l0.1,0z" fill="#FFFFFF"/>
    <path id="svg_10" d="m56.6,8.1l1,0l0,1l-1,0l0,-1zm0,1.7l1,0l0,4.7l-1,0l0,-4.7z" fill="#FFFFFF"/>
    <path id="svg_11" d="m58.8,8.1l1,0l0,6.4l-1,0l0,-6.4z" fill="#FFFFFF"/>
    <path id="svg_12" d="m64.8,13.5c0,0.1 0,0.2 0,0.3c0,0.1 0.1,0.1 0.2,0.1c0,0 0.1,0 0.1,0s0.1,0 0.1,0l0,0.7c0,0 -0.1,0 -0.1,0c-0.1,0 -0.1,0 -0.2,0c-0.1,0 -0.1,0 -0.2,0c-0.1,0 -0.1,0 -0.2,0c-0.2,0 -0.4,0 -0.5,-0.1c-0.1,-0.1 -0.2,-0.2 -0.3,-0.4c-0.2,0.2 -0.5,0.3 -0.8,0.4c-0.3,0.1 -0.6,0.1 -0.9,0.1c-0.2,0 -0.4,0 -0.6,-0.1c-0.2,-0.1 -0.4,-0.1 -0.5,-0.3c-0.1,-0.1 -0.3,-0.3 -0.4,-0.4c-0.1,-0.2 -0.1,-0.4 -0.1,-0.6c0,-0.3 0.1,-0.5 0.2,-0.7c0.1,-0.2 0.2,-0.3 0.4,-0.4s0.4,-0.2 0.6,-0.2s0.4,-0.1 0.6,-0.1c0.2,0 0.4,-0.1 0.5,-0.1c0.2,0 0.3,0 0.4,-0.1s0.2,-0.1 0.3,-0.2s0.1,-0.2 0.1,-0.3c0,-0.1 0,-0.2 -0.1,-0.3c-0.1,-0.1 -0.1,-0.1 -0.2,-0.2s-0.2,-0.1 -0.3,-0.1c-0.1,0 -0.2,0 -0.3,0c-0.3,0 -0.5,0.1 -0.7,0.2c-0.2,0.1 -0.3,0.3 -0.3,0.6l-1,0c0,-0.3 0.1,-0.5 0.2,-0.7c0.1,-0.2 0.3,-0.4 0.5,-0.5c0.2,-0.1 0.4,-0.2 0.7,-0.3c0.2,0 0.5,-0.1 0.8,-0.1c0.2,0 0.5,0 0.7,0.1c0.2,0 0.4,0.1 0.6,0.2s0.3,0.2 0.4,0.4c0.1,0.2 0.2,0.4 0.2,0.6l0,2.5l0.1,0zm-1,-1.3c-0.2,0.1 -0.3,0.2 -0.6,0.2c-0.2,0 -0.5,0.1 -0.7,0.1c-0.1,0 -0.2,0 -0.3,0.1c-0.1,0 -0.2,0.1 -0.3,0.1c-0.1,0.1 -0.1,0.1 -0.2,0.2c0,0.1 -0.1,0.2 -0.1,0.3c0,0.1 0,0.2 0.1,0.3c0.1,0.1 0.1,0.1 0.2,0.2s0.2,0.1 0.3,0.1c0.1,0 0.2,0 0.3,0c0.1,0 0.2,0 0.4,0c0.1,0 0.3,-0.1 0.4,-0.2c0.1,-0.1 0.2,-0.2 0.3,-0.3c0.1,-0.1 0.1,-0.2 0.1,-0.4l0,-0.7l0.1,0z" fill="#FFFFFF"/>
    <path id="svg_13" d="m65.9,8.1l1,0l0,2.4l0,0c0.1,-0.1 0.2,-0.2 0.3,-0.3c0.1,-0.1 0.2,-0.2 0.3,-0.2c0.1,-0.1 0.3,-0.1 0.4,-0.1c0.1,0 0.3,0 0.4,0c0.4,0 0.7,0.1 1,0.2c0.3,0.1 0.5,0.3 0.7,0.5c0.2,0.2 0.3,0.5 0.4,0.8c0.1,0.3 0.1,0.6 0.1,1c0,0.3 0,0.6 -0.1,0.9s-0.2,0.6 -0.4,0.8c-0.2,0.2 -0.4,0.4 -0.6,0.5c-0.3,0.1 -0.5,0.2 -0.9,0.2c-0.2,0 -0.3,0 -0.5,0c-0.2,0 -0.3,-0.1 -0.5,-0.1c-0.1,-0.1 -0.3,-0.1 -0.4,-0.2c-0.1,-0.1 -0.2,-0.2 -0.3,-0.4l0,0l0,0.6l-1,0l0,-6.6l0.1,0zm3.6,4.1c0,-0.2 0,-0.4 -0.1,-0.6c-0.1,-0.2 -0.1,-0.4 -0.2,-0.5c-0.1,-0.2 -0.2,-0.3 -0.4,-0.4c-0.2,-0.1 -0.3,-0.1 -0.6,-0.1c-0.4,0 -0.8,0.2 -1,0.5c-0.2,0.3 -0.3,0.7 -0.3,1.2c0,0.2 0,0.5 0.1,0.7c0.1,0.2 0.1,0.4 0.3,0.5c0.1,0.1 0.2,0.3 0.4,0.3s0.3,0.1 0.6,0.1c0.2,0 0.4,0 0.6,-0.1c0.2,-0.1 0.3,-0.2 0.4,-0.4c0.1,-0.2 0.2,-0.3 0.2,-0.5c0,-0.3 0,-0.5 0,-0.7z" fill="#FFFFFF"/>
    <path id="svg_14" d="m71.4,8.1l1,0l0,6.4l-1,0l0,-6.4z" fill="#FFFFFF"/>
    <path id="svg_15" d="m74.4,12.4c0,0.2 0,0.4 0.1,0.5c0.1,0.2 0.1,0.3 0.2,0.4c0.1,0.1 0.2,0.2 0.4,0.3s0.3,0.1 0.6,0.1c0.3,0 0.5,-0.1 0.7,-0.2s0.3,-0.3 0.4,-0.6l1,0c-0.1,0.3 -0.1,0.5 -0.3,0.7c-0.1,0.2 -0.3,0.4 -0.5,0.5c-0.2,0.1 -0.4,0.2 -0.6,0.3c-0.2,0.1 -0.5,0.1 -0.7,0.1c-0.4,0 -0.7,-0.1 -1,-0.2c-0.3,-0.1 -0.5,-0.3 -0.7,-0.5c-0.2,-0.2 -0.3,-0.5 -0.4,-0.8c-0.1,-0.3 -0.1,-0.6 -0.1,-1c0,-0.3 0.1,-0.6 0.2,-0.9c0.1,-0.3 0.3,-0.6 0.5,-0.8c0.2,-0.2 0.4,-0.4 0.7,-0.5c0.3,-0.1 0.6,-0.2 0.9,-0.2c0.4,0 0.7,0.1 1,0.2c0.3,0.2 0.5,0.4 0.7,0.6c0.2,0.3 0.3,0.5 0.4,0.9c0.1,0.3 0.1,0.7 0.1,1l-3.6,0l0,0.1zm2.4,-0.6c0,-0.2 0,-0.3 -0.1,-0.5c-0.1,-0.1 -0.1,-0.3 -0.2,-0.4c-0.1,-0.1 -0.2,-0.2 -0.4,-0.3c-0.1,-0.1 -0.3,-0.1 -0.5,-0.1c-0.2,0 -0.3,0 -0.5,0.1c-0.1,0.1 -0.3,0.1 -0.4,0.3c-0.1,0.1 -0.2,0.2 -0.3,0.4c-0.1,0.2 -0.1,0.3 -0.1,0.5l2.5,0z" fill="#FFFFFF"/>
    <path id="svg_16" d="m83.2,14.6c-0.4,0 -0.7,-0.1 -1,-0.2s-0.5,-0.3 -0.7,-0.5c-0.2,-0.2 -0.4,-0.5 -0.5,-0.8c-0.1,-0.3 -0.2,-0.6 -0.2,-1c0,-0.4 0.1,-0.7 0.2,-1c0.1,-0.3 0.3,-0.6 0.5,-0.8s0.4,-0.4 0.7,-0.5c0.3,-0.1 0.6,-0.2 1,-0.2s0.7,0.1 1,0.2c0.3,0.1 0.5,0.3 0.7,0.5s0.4,0.5 0.5,0.8c0.1,0.3 0.2,0.6 0.2,1c0,0.4 -0.1,0.7 -0.2,1c-0.1,0.3 -0.3,0.6 -0.5,0.8c-0.2,0.2 -0.4,0.4 -0.7,0.5c-0.3,0.2 -0.6,0.2 -1,0.2zm0,-0.8c0.2,0 0.4,0 0.6,-0.1c0.2,-0.1 0.3,-0.2 0.4,-0.4c0.1,-0.2 0.2,-0.3 0.2,-0.5c0.1,-0.2 0.1,-0.4 0.1,-0.6c0,-0.2 0,-0.4 -0.1,-0.6c-0.1,-0.2 -0.1,-0.4 -0.2,-0.5c-0.1,-0.2 -0.2,-0.3 -0.4,-0.4c-0.2,-0.1 -0.4,-0.1 -0.6,-0.1c-0.2,0 -0.4,0 -0.6,0.1c-0.2,0.1 -0.3,0.2 -0.4,0.4c-0.1,0.2 -0.2,0.3 -0.2,0.5c-0.1,0.2 -0.1,0.4 -0.1,0.6c0,0.2 0,0.4 0.1,0.6c0.1,0.2 0.1,0.4 0.2,0.5c0.1,0.2 0.2,0.3 0.4,0.4c0.2,0.1 0.4,0.1 0.6,0.1z" fill="#FFFFFF"/>
    <path id="svg_17" d="m86.4,9.8l1,0l0,0.7l0,0c0.2,-0.3 0.4,-0.5 0.6,-0.6s0.5,-0.2 0.8,-0.2c0.5,0 0.9,0.1 1.2,0.4c0.3,0.3 0.4,0.7 0.4,1.2l0,3.2l-1,0l0,-2.9c0,-0.4 -0.1,-0.6 -0.2,-0.8c-0.1,-0.2 -0.4,-0.2 -0.7,-0.2c-0.2,0 -0.3,0 -0.5,0.1c-0.1,0.1 -0.3,0.1 -0.4,0.3c-0.1,0.1 -0.2,0.2 -0.2,0.4c-0.1,0.2 -0.1,0.3 -0.1,0.5l0,2.7l-1,0l0,-4.8l0.1,0z" fill="#FFFFFF"/>
   </g>
   <path id="svg_18" d="m67.3,23l0,-1.1c0,-0.2 0.1,-0.3 0.3,-0.3l4.7,0c0.2,0 0.3,0.1 0.3,0.3l0,0.9c0,0.2 -0.1,0.3 -0.4,0.7l-2.4,3.5c0.9,0 1.9,0.1 2.7,0.6c0.2,0.1 0.2,0.3 0.3,0.4l0,1.1c0,0.2 -0.2,0.3 -0.3,0.2c-1.5,-0.8 -3.4,-0.8 -5,0c-0.2,0.1 -0.3,-0.1 -0.3,-0.2l0,-1.1c0,-0.2 0,-0.5 0.2,-0.7l2.8,-4.1l-2.5,0c-0.3,0 -0.4,-0.1 -0.4,-0.2z" fill="#FFFFFF" clip-rule="evenodd" fill-rule="evenodd"/>
   <path id="svg_19" d="m50,29.6l-1.4,0c-0.1,0 -0.2,-0.1 -0.3,-0.2l0,-7.4c0,-0.1 0.1,-0.3 0.3,-0.3l1.3,0c0.1,0 0.3,0.1 0.3,0.2l0,1l0,0c0.3,-0.9 1,-1.4 1.9,-1.4c0.9,0 1.5,0.4 1.9,1.4c0.3,-0.9 1.1,-1.4 2,-1.4c0.6,0 1.3,0.2 1.7,0.8c0.5,0.6 0.4,1.5 0.4,2.3l0,4.7c0,0.1 -0.1,0.3 -0.3,0.3l-1.4,0c-0.1,0 -0.3,-0.1 -0.3,-0.3l0,-3.9c0,-0.3 0,-1.1 0,-1.4c-0.1,-0.5 -0.4,-0.6 -0.8,-0.6c-0.3,0 -0.7,0.2 -0.9,0.6s-0.1,1 -0.1,1.4l0,3.9c0,0.1 -0.1,0.3 -0.3,0.3l-1.4,0c-0.1,0 -0.3,-0.1 -0.3,-0.3l0,-3.9c0,-0.8 0.1,-2 -0.9,-2c-1,0 -1,1.2 -1,2l0,3.9c-0.1,0.2 -0.2,0.3 -0.4,0.3z" fill="#FFFFFF" clip-rule="evenodd" fill-rule="evenodd"/>
   <path id="svg_20" d="m76.6,21.5c2.1,0 3.3,1.8 3.3,4.2c0,2.3 -1.3,4 -3.3,4c-2.1,0 -3.2,-1.8 -3.2,-4.1c0,-2.3 1.1,-4.1 3.2,-4.1zm0,1.5c-1.1,0 -1.1,1.4 -1.1,2.3c0,0.9 0,2.8 1.1,2.8c1.1,0 1.2,-1.6 1.2,-2.5c0,-0.6 0,-1.4 -0.2,-2c-0.2,-0.4 -0.5,-0.6 -1,-0.6z" fill="#FFFFFF" clip-rule="evenodd" fill-rule="evenodd"/>
   <path id="svg_21" d="m82.7,29.6l-1.4,0c-0.1,0 -0.3,-0.1 -0.3,-0.3l0,-7.4c0,-0.1 0.1,-0.2 0.3,-0.2l1.3,0c0.1,0 0.2,0.1 0.3,0.2l0,1.1l0,0c0.4,-1 1,-1.5 2,-1.5c0.6,0 1.3,0.2 1.7,0.9c0.4,0.6 0.4,1.6 0.4,2.3l0,4.6c0,0.1 -0.1,0.2 -0.3,0.2l-1.4,0c-0.1,0 -0.2,-0.1 -0.3,-0.2l0,-4c0,-0.8 0.1,-2 -0.9,-2c-0.3,0 -0.7,0.2 -0.8,0.6c-0.2,0.5 -0.2,0.9 -0.2,1.4l0,4c-0.1,0.2 -0.3,0.3 -0.4,0.3z" fill="#FFFFFF" clip-rule="evenodd" fill-rule="evenodd"/>
   <ellipse id="svg_22" ry="0.7" rx="0.7" cy="29" cx="88.5" fill="#FFFFFF" clip-rule="evenodd" fill-rule="evenodd"/>
   <path id="svg_23" d="m103,29.6c-0.1,0 -0.3,-0.1 -0.3,-0.3l0,-7.4c0,-0.1 0.1,-0.2 0.3,-0.2l0.5,0c0.1,0 0.3,0.1 0.3,0.2l0,1.1c0.4,-0.9 1.1,-1.5 2,-1.5l0.1,0l0.1,0c0.9,0 1.6,0.7 1.9,1.7c0.4,-1 1.1,-1.7 2.1,-1.7l0.1,0l0.1,0c0.7,0 1.4,0.5 1.7,1.1c0.3,0.7 0.3,1.5 0.3,2.3l0,4.4c0,0.1 -0.1,0.3 -0.3,0.3l-0.6,0c-0.1,0 -0.2,-0.1 -0.3,-0.2l0,-4.5c0,-0.5 0,-1.1 -0.2,-1.6c-0.2,-0.5 -0.6,-0.8 -1.1,-0.8c-0.5,0 -1,0.4 -1.3,0.9c-0.4,0.6 -0.4,1.2 -0.4,2l0,4c0,0.1 -0.1,0.2 -0.3,0.2l-0.6,0c-0.1,0 -0.3,-0.1 -0.3,-0.3l0,-4.7c0,-0.4 0,-0.9 -0.2,-1.3c-0.2,-0.4 -0.6,-0.7 -1.1,-0.8c-0.5,0 -0.9,0.4 -1.2,0.8c-0.3,0.5 -0.4,1.1 -0.4,1.8l0,4.3c0,0.1 -0.1,0.3 -0.3,0.3l-0.6,0l0,-0.1z" fill="#FFFFFF"/>
   <path id="svg_24" d="m98.7,29.7c-2,0 -3,-2.1 -3,-4.2c0,-2.2 1.1,-4.1 3.1,-4.1l0.1,0l0.1,0c2,0 3,2 3,4.1c0,2.2 -1.1,4.1 -3.2,4.1l-0.1,0l0,0.1zm0.1,-1c0.7,0 1.2,-0.4 1.5,-1.1c0.3,-0.6 0.3,-1.3 0.3,-2c0,-0.7 -0.1,-1.5 -0.4,-2.2c-0.3,-0.6 -0.9,-0.9 -1.4,-0.9c-0.6,0 -1.2,0.5 -1.5,1.1c-0.3,0.6 -0.3,1.3 -0.3,2c0,0.7 0.1,1.5 0.4,2.2c0.3,0.5 0.8,0.9 1.4,0.9z" fill="#FFFFFF"/>
   <path id="svg_25" d="m92.3,28.7c0.9,0 1.4,-0.8 1.6,-1.7c0,-0.1 0.1,-0.2 0.3,-0.2l0.6,0c0.1,0 0.3,0.1 0.3,0.2c-0.3,1.6 -1.3,2.7 -2.6,2.7l-0.1,0l-0.1,0c-2,0 -2.9,-2 -2.9,-4.1c0,-2 0.9,-4.1 2.9,-4.1l0.1,0l0.1,0c1.4,0 2.4,1.1 2.6,2.7c0,0.1 -0.1,0.2 -0.2,0.2l-0.6,0c-0.1,0 -0.2,-0.1 -0.2,-0.3c-0.2,-0.9 -0.7,-1.6 -1.5,-1.7c-1.4,0 -1.8,1.7 -1.8,3c-0.2,1.4 0.1,3.2 1.5,3.3z" fill="#FFFFFF"/>
   <path id="svg_26" d="m63.5,26c0,0.6 0,1 -0.3,1.5c-0.2,0.4 -0.6,0.7 -1,0.7c-0.6,0 -0.9,-0.4 -0.9,-1c0,-1.2 1.1,-1.4 2.1,-1.4l0,0.2l0.1,0zm1.5,3.6c-0.1,0.1 -0.2,0.1 -0.3,0c-0.5,-0.4 -0.6,-0.6 -0.8,-1c-0.8,0.8 -1.3,1 -2.4,1c-1.2,0 -2.2,-0.7 -2.2,-2.2c0,-1.2 0.6,-2 1.5,-2.4c0.8,-0.3 1.9,-0.4 2.7,-0.5l0,-0.2c0,-0.3 0,-0.7 -0.2,-1c-0.2,-0.3 -0.5,-0.4 -0.8,-0.4c-0.5,0 -1,0.3 -1.2,0.9c0,0.1 -0.1,0.3 -0.2,0.3l-1.4,-0.2c-0.1,0 -0.2,-0.1 -0.2,-0.3c0.3,-1.7 1.8,-2.2 3.2,-2.2c0.7,0 1.6,0.2 2.2,0.7c0.7,0.7 0.6,1.5 0.6,2.5l0,2.2c0,0.7 0.3,1 0.5,1.3c0.1,0.1 0.1,0.3 0,0.4c-0.2,0.3 -0.7,0.8 -1,1.1l0,0z" fill="#FFFFFF" clip-rule="evenodd" fill-rule="evenodd"/>
   <path id="svg_27" d="m44.7,26c0,0.6 0,1 -0.3,1.5c-0.2,0.4 -0.6,0.7 -1,0.7c-0.6,0 -0.9,-0.4 -0.9,-1c0,-1.2 1.1,-1.4 2.1,-1.4l0,0.2l0.1,0zm1.4,3.6c-0.1,0.1 -0.2,0.1 -0.3,0c-0.5,-0.4 -0.6,-0.6 -0.8,-1c-0.8,0.8 -1.3,1 -2.4,1c-1.2,0 -2.2,-0.7 -2.2,-2.2c0,-1.2 0.6,-2 1.5,-2.4c0.8,-0.3 1.9,-0.4 2.7,-0.5l0,-0.2c0,-0.3 0,-0.7 -0.2,-1c-0.2,-0.3 -0.5,-0.4 -0.8,-0.4c-0.5,0 -1,0.3 -1.2,0.9c0,0.1 -0.1,0.3 -0.2,0.3l-1.4,-0.2c-0.1,0 -0.2,-0.1 -0.2,-0.3c0.3,-1.7 1.8,-2.2 3.2,-2.2c0.7,0 1.6,0.2 2.2,0.7c0.7,0.7 0.6,1.5 0.6,2.5l0,2.2c0,0.7 0.3,1 0.5,1.3c0.1,0.1 0.1,0.3 0,0.4c-0.2,0.3 -0.7,0.8 -1,1.1l0,0z" fill="#FFFFFF" clip-rule="evenodd" fill-rule="evenodd"/>
  </g>
 </g>
</svg>