<svg xmlns="http://www.w3.org/2000/svg" xmlns:xlink="http://www.w3.org/1999/xlink" width="32" height="32" viewBox="0 0 32 32">
  <defs>
    <clipPath id="clip-path">
      <rect id="Rectangle_56" data-name="Rectangle 56" width="32" height="32" transform="translate(1297 1041)" fill="#fff" stroke="#707070" stroke-width="1"/>
    </clipPath>
    <radialGradient id="radial-gradient" cx="6.877" cy="27.848" r="25.62" gradientTransform="translate(-19.02 34.726) rotate(-90) scale(1 0.93)" gradientUnits="userSpaceOnUse">
      <stop offset="0" stop-color="#fd5"/>
      <stop offset="0.1" stop-color="#fd5"/>
      <stop offset="0.5" stop-color="#ff543e"/>
      <stop offset="1" stop-color="#c837ab"/>
    </radialGradient>
    <radialGradient id="radial-gradient-2" cx="-4.321" cy="1.849" r="11.452" gradientTransform="matrix(0.196, 0.98, -4.042, 0.809, 4.002, 4.585)" gradientUnits="userSpaceOnUse">
      <stop offset="0" stop-color="#3771c8"/>
      <stop offset="0.128" stop-color="#3771c8"/>
      <stop offset="1" stop-color="#60f" stop-opacity="0"/>
    </radialGradient>
  </defs>
  <g id="instagram-icon" transform="translate(-1297 -1041)" clip-path="url(#clip-path)">
    <g id="Instagram_logo_2016" transform="translate(1299.818 1043.768)">
      <path id="Path_13" data-name="Path 13" d="M12.926,0C7.53,0,5.952.006,5.645.031A6.413,6.413,0,0,0,3.1.671,5.16,5.16,0,0,0,1.613,1.758,5.547,5.547,0,0,0,.116,4.9,23.327,23.327,0,0,0,0,8.717c0,1.029,0,2.383,0,4.2,0,5.392.006,6.969.032,7.275a6.492,6.492,0,0,0,.616,2.5,5.445,5.445,0,0,0,3.529,2.883,9.171,9.171,0,0,0,1.877.249c.32.014,3.583.024,6.847.024s6.529,0,6.841-.02a8.83,8.83,0,0,0,1.944-.254,5.412,5.412,0,0,0,3.529-2.889,6.386,6.386,0,0,0,.609-2.449c.017-.223.025-3.773.025-7.318s-.008-7.09-.025-7.312A6.314,6.314,0,0,0,25.2,3.128a5.123,5.123,0,0,0-1.106-1.516A5.581,5.581,0,0,0,20.947.118,23.294,23.294,0,0,0,17.133,0Z" transform="translate(0.003 0)" fill="url(#radial-gradient)"/>
      <path id="Path_14" data-name="Path 14" d="M12.926,0C7.53,0,5.952.006,5.645.031A6.413,6.413,0,0,0,3.1.671,5.16,5.16,0,0,0,1.613,1.758,5.547,5.547,0,0,0,.116,4.9,23.327,23.327,0,0,0,0,8.717c0,1.029,0,2.383,0,4.2,0,5.392.006,6.969.032,7.275a6.492,6.492,0,0,0,.616,2.5,5.445,5.445,0,0,0,3.529,2.883,9.171,9.171,0,0,0,1.877.249c.32.014,3.583.024,6.847.024s6.529,0,6.841-.02a8.83,8.83,0,0,0,1.944-.254,5.412,5.412,0,0,0,3.529-2.889,6.386,6.386,0,0,0,.609-2.449c.017-.223.025-3.773.025-7.318s-.008-7.09-.025-7.312A6.314,6.314,0,0,0,25.2,3.128a5.123,5.123,0,0,0-1.106-1.516A5.581,5.581,0,0,0,20.947.118,23.294,23.294,0,0,0,17.133,0Z" transform="translate(0.003 0)" fill="url(#radial-gradient-2)"/>
      <path id="Path_15" data-name="Path 15" d="M27.544,18c-2.592,0-2.917.011-3.935.058a7,7,0,0,0-2.316.443A4.882,4.882,0,0,0,18.5,21.292a6.971,6.971,0,0,0-.443,2.316C18.012,24.626,18,24.951,18,27.543s.012,2.916.058,3.934a7.014,7.014,0,0,0,.443,2.316,4.884,4.884,0,0,0,2.791,2.792,7.009,7.009,0,0,0,2.317.443c1.018.046,1.343.058,3.935.058s2.916-.011,3.934-.058a7.013,7.013,0,0,0,2.317-.443,4.89,4.89,0,0,0,2.791-2.792,7.074,7.074,0,0,0,.443-2.316c.046-1.018.058-1.342.058-3.934s-.012-2.917-.058-3.935a7.07,7.07,0,0,0-.443-2.316A4.883,4.883,0,0,0,33.794,18.5a7.025,7.025,0,0,0-2.318-.443C30.458,18.011,30.134,18,27.541,18Zm-.856,1.72h.856c2.548,0,2.85.009,3.856.055a5.284,5.284,0,0,1,1.772.329,3.162,3.162,0,0,1,1.811,1.811,5.273,5.273,0,0,1,.329,1.771c.046,1.006.056,1.308.056,3.855s-.01,2.849-.056,3.855a5.278,5.278,0,0,1-.329,1.771,3.165,3.165,0,0,1-1.811,1.81,5.264,5.264,0,0,1-1.772.329c-1.006.046-1.308.056-3.856.056s-2.85-.01-3.856-.056a5.294,5.294,0,0,1-1.772-.329A3.162,3.162,0,0,1,20.1,33.167a5.273,5.273,0,0,1-.329-1.771c-.046-1.006-.055-1.308-.055-3.857s.009-2.849.055-3.855a5.284,5.284,0,0,1,.329-1.772A3.163,3.163,0,0,1,21.916,20.1a5.272,5.272,0,0,1,1.772-.329c.88-.04,1.222-.052,3-.054Zm5.95,1.585a1.145,1.145,0,1,0,1.145,1.145A1.145,1.145,0,0,0,32.638,21.3Zm-5.094,1.338a4.9,4.9,0,1,0,4.9,4.9,4.9,4.9,0,0,0-4.9-4.9Zm0,1.72a3.181,3.181,0,1,1-3.181,3.181A3.181,3.181,0,0,1,27.544,24.362Z" transform="translate(-14.62 -14.62)" fill="#fff"/>
    </g>
  </g>
</svg>
