<svg xmlns="http://www.w3.org/2000/svg" xmlns:xlink="http://www.w3.org/1999/xlink" width="32" height="32" viewBox="0 0 32 32">
  <defs>
    <clipPath id="clip-path">
      <rect id="Rectangle_55" data-name="Rectangle 55" width="32" height="32" transform="translate(1297 1005)" fill="#fff" stroke="#707070" stroke-width="1"/>
    </clipPath>
  </defs>
  <g id="twitter-icon" transform="translate(-1297 -1005)" clip-path="url(#clip-path)">
    <path id="twitter" d="M24.921,46.217a.545.545,0,0,0-.654-.115,4.654,4.654,0,0,1-.7.252,4.9,4.9,0,0,0,.828-1.594.545.545,0,0,0-.839-.586A11.453,11.453,0,0,1,20.938,45.2a5.484,5.484,0,0,0-6.871-.531,5.408,5.408,0,0,0-2.354,5A12.9,12.9,0,0,1,2.676,44.8a.563.563,0,0,0-.463-.2.545.545,0,0,0-.436.266,5.275,5.275,0,0,0-.6,4.094,5.831,5.831,0,0,0,.947,1.98,2.893,2.893,0,0,1-.554-.354A.545.545,0,0,0,.681,51a5.635,5.635,0,0,0,2.9,4.839,4.04,4.04,0,0,1-.7-.15.545.545,0,0,0-.654.745,5.947,5.947,0,0,0,4.128,3.378A9.6,9.6,0,0,1,.608,61a.537.537,0,0,0-.581.373.545.545,0,0,0,.251.643A16.33,16.33,0,0,0,8.331,64.3a13.832,13.832,0,0,0,7.644-2.338c4.319-2.866,7.011-8.012,6.636-12.617a10.179,10.179,0,0,0,2.369-2.469A.545.545,0,0,0,24.921,46.217Z" transform="translate(1299.958 966.53)" fill="#03a9f4"/>
  </g>
</svg>
